<?xml version="1.0" encoding="UTF-8"?>
<svg id="Calque_2" data-name="Calque 2" xmlns="http://www.w3.org/2000/svg" viewBox="0 0 383.3 383.44">
  <defs>
    <style>
      .cls-1 {
        stroke-width: 0px;
      }
    </style>
  </defs>
  <g id="Calque_1-2" data-name="Calque 1">
    <path class="cls-1" d="m0,203.78c0-7.99,0-15.97,0-23.96.22-1.09.57-2.17.65-3.26.99-13.73,3.58-27.17,7.61-40.32C38.4,37.73,140.54-19.67,239.65,6.19c98.8,25.78,159.82,123.34,139.88,223.66-15.28,76.86-77.59,137.52-154.85,150.65-6.97,1.19-14.02,1.97-21.03,2.94h-23.96c-.82-.21-1.64-.56-2.47-.61-16.24-1.15-32.15-4.14-47.42-9.8C60.18,347.24,17.94,297.85,3.03,225.17,1.59,218.13.99,210.91,0,203.78Zm167.14-21.73c0-19.58-.23-38.76.13-57.94.13-6.76,5.92-11.76,12.74-11.82,16.47-.16,32.94-.23,49.41.05,10.03.17,18.5,7.47,20.38,17.24.72,3.75.53,7.7.57,11.56.1,10.05-.9,8.84,9.08,9.05,3.22.07,4.44-1.19,4.66-4.28,1.01-13.93,2.21-27.85,3.2-41.78.47-6.51-1.24-8.14-7.91-8.14-47.16,0-94.33.05-141.49-.04-11.86-.02-10.78.03-10.78,11.59,0,3.1,1.66,4.57,4.64,4.64,2.87.07,5.74-.04,8.61.04,8.14.22,13.66,5.64,13.66,13.71.05,43.91.07,87.82-.08,131.73,0,2.7-1.02,5.7-2.45,8.02-3.08,5.01-8.22,5.88-13.74,5.83-10.95-.1-10.95,0-10.65,10.91.11,4.02,1.31,5.19,5.54,5.19,49.66.01,99.32.01,148.97,0,4.85,0,6.51-1.45,7.22-6.16,2.12-14.05,4.16-28.11,6.38-42.14,1.5-9.48,1.6-9.34-8.03-9.44-3.12-.03-4.4,1.19-5.2,4.01-1.76,6.23-3.74,12.4-5.76,18.55-3.79,11.48-12.7,18.63-24.7,18.87-16.96.34-33.94.26-50.9.07-8.16-.09-13.52-5.74-13.56-13.86-.09-18.09-.02-36.18,0-54.27,0-.47.15-.93.29-1.72h3.76c10.11,0,20.21,0,30.32,0,12.14,0,19,6.78,19.19,18.92.08,5.06.18,5.15,5.36,5.17.62,0,1.25,0,1.87,0,4.95-.02,5.11-.16,5.11-5,.01-15.97,0-31.94,0-47.9,0-4.49-.07-8.98.02-13.47.06-2.52-.94-3.64-3.5-3.64-10.12,0-8.82-.49-8.89,8.06-.01,1.49-.16,2.99-.42,4.46-1.31,7.55-7.84,13.69-15.51,13.86-12.34.26-24.69.07-37.53.07Z"/>
  </g>
</svg>