<?xml version="1.0" encoding="UTF-8"?>
<svg id="Calque_2" data-name="Calque 2" xmlns="http://www.w3.org/2000/svg" viewBox="0 0 512 512">
  <defs>
    <style>
      .cls-1 {
        stroke-width: 0px;
      }
    </style>
  </defs>
  <g id="Calque_1-2" data-name="Calque 1">
    <g>
      <path class="cls-1" d="m240,0c10.67,0,21.33,0,32,0,1.28.28,2.55.72,3.85.82,39.86,2.98,77.18,14.42,111.18,35.35,66.08,40.68,106.79,99.2,121.05,175.71,1.73,9.29,2.64,18.74,3.93,28.12v32c-.41,3.28-.87,6.56-1.22,9.85-5.48,50.64-23.83,96.06-56.15,135.44-40.19,48.98-91.6,79.39-154.05,90.75-9.46,1.72-19.05,2.66-28.58,3.96h-32c-6.25-.77-12.51-1.44-18.74-2.32-47.23-6.72-89.65-24.71-126.52-55.03C45.8,414.41,15.32,363.07,3.98,300.61,2.26,291.14,1.31,281.54,0,272c0-10.67,0-21.33,0-32,.4-3.28.85-6.55,1.21-9.84,5.92-54.23,26.43-102.18,62.6-143.06C103.59,42.15,153.13,14.19,212.39,3.86c9.15-1.6,18.4-2.59,27.61-3.86Zm15.98,110.02c-20.99,0-41.99-.38-62.97.12-17.04.41-33.37,4.4-47.77,14.06-23.89,16.03-34.34,39.72-34.93,67.34-.91,42.96-.57,85.96-.07,128.94.19,16.5,4.56,32.32,13.94,46.27,16.18,24.04,40.05,34.4,67.84,34.97,42.63.88,85.3.69,127.94.04,21.14-.32,40.65-6.79,56.55-21.72,17.63-16.55,24.75-37.73,25.32-61.09.85-34.98.87-69.98.91-104.97.01-10.31-.76-20.65-1.78-30.92-3.96-39.74-32.33-68.58-72.08-71.88-24.21-2.01-72.89-1.74-72.9-1.15Z"/>
      <path class="cls-1" d="m256.65,135.04c21.97.63,43.98.7,65.92,2.02,31.13,1.87,51.37,21.19,52.2,52.26,1.18,44.43,1.18,88.93,0,133.36-.82,30.98-21.15,51.26-52.24,52.09-44.26,1.19-88.6,1.21-132.85.01-31.48-.86-51.6-20.92-52.45-52.37-1.2-44.59-.85-89.25.03-133.86.38-19.32,9.13-35.35,27.07-44.85,11.02-5.84,23.15-7.3,35.35-7.49,18.99-.29,56.98-.8,56.98-1.17Zm74.78,120.97c.01-41.65-33.44-75.23-75.16-75.44-41.77-.21-75.69,33.57-75.71,75.4-.02,41.62,33.47,75.23,75.17,75.45,41.75.22,75.68-33.58,75.7-75.41Zm20.62-78.58c-.04-9.65-7.78-17.41-17.42-17.47-9.91-.06-17.74,7.75-17.7,17.66.04,9.7,7.71,17.4,17.39,17.45,9.91.06,17.77-7.77,17.73-17.64Z"/>
      <path class="cls-1" d="m304.98,256.15c-.07,26.93-22.06,48.85-49.01,48.84-27.13-.01-49.13-22.21-48.96-49.39.17-26.88,22.3-48.71,49.26-48.59,26.92.12,48.77,22.17,48.71,49.14Z"/>
    </g>
  </g>
</svg>