<?xml version="1.0" encoding="UTF-8"?>
<svg id="Calque_2" data-name="Calque 2" xmlns="http://www.w3.org/2000/svg" viewBox="0 0 153.66 184.27">
  <defs>
    <style>
      .cls-1 {
        stroke-width: 0px;
      }
    </style>
  </defs>
  <g id="Calque_1-2" data-name="Calque 1">
    <g>
      <path class="cls-1" d="m.03,70.65c-.28-2.86,1.86-6.29,5.02-6.87,1.12-.2,2.23-.89,3.16-1.6,5.66-4.32,12.21-6.99,18.49-10.17,7.69-3.9,15.46-7.63,23.17-11.49,8.48-4.25,17.29-7.68,26.25-10.75,2.18-.75,4.15-2.11,6.23-3.13,2.63-1.3,5.24-2.65,7.94-3.78,2.52-1.06,3.77-3.17,5.05-5.33,3.29-5.56,6.57-11.13,9.91-16.67.8-1.33,1.53-1.11,2.41.5,2.81,5.17,5.69,10.3,8.44,15.49.88,1.65,1.74,1.84,3.4.97,6.74-3.53,13.56-6.92,20.35-10.37,1.73-.88,3.47-1.76,5.18-2.69,1.36-.74,2.13-.32,2.48,1.12,1.33,5.41,1.73,10.85.72,16.39-.3,1.67.18,3.47.06,5.19-.26,3.84-.72,7.67-1.02,11.52-.37,4.68-.67,9.36-1.01,14.05-.2,2.74-.54,5.47-.63,8.22-.11,3.27.05,6.55-.08,9.83-.05,1.15-.54,2.37-2.07,2.44-3.52.17-7.05.28-10.57.5-1.94.12-3.86.55-5.8.59-3.99.09-7.98.01-11.96,0-3.63,0-7.28-.17-10.9.03-3.16.17-6.3.81-9.46,1.11-3.44.32-6.9.41-10.33.75-5.05.5-10.08,1.3-15.13,1.68-3.72.27-7.48,0-11.21.1-2.16.05-4.31.48-6.47.49-2.17.02-4.33-.34-6.5-.41-5.14-.17-10.28-.27-15.43-.39-7.72-.18-15.43-.28-23.14-.57-4.32-.17-6.56-2.65-6.52-6.75ZM106.03,3.36c-.97,1.54-1.83,2.77-2.56,4.07-2.33,4.15-4.59,8.34-6.94,12.49-.49.87-1.07,1.91-1.89,2.34-7.03,3.74-13.89,7.75-21.46,10.48-7.27,2.62-14.28,5.99-21.31,9.22-6.06,2.78-12.01,5.82-18,8.76-5.64,2.77-11.35,5.41-16.88,8.38-3.28,1.76-6.28,4.06-9.15,5.94.76,1.94,1.72,3.46,1.89,5.07.16,1.59-.48,3.26-.82,5.13,4.96.22,9.92.5,14.88.62,4.46.11,8.92,0,13.38.06,3.32.05,6.64.26,9.97.35,1.18.03,2.36-.11,3.54-.11,3.06,0,6.12.09,9.17.02,2.93-.07,5.86-.29,8.79-.45,4.63-.25,9.28-.38,13.9-.79,6.56-.6,13.09-1.65,19.65-2.06,6.34-.4,12.72-.18,19.07-.35,3.7-.1,7.39-.44,11.08-.65,2.98-.17,5.97-.42,8.95-.45,1.45-.02,1.67-.82,1.74-1.89.25-3.76.49-7.52.72-11.28.31-5.01.52-10.03.92-15.03.24-3,.93-5.97,1.11-8.97.31-5.02.36-10.05.53-15.08.13-3.99.38-7.99-.69-12.16-2.55,1.33-4.94,2.65-7.4,3.83-1.57.76-3.4,1.06-4.82,2.01-3.39,2.26-6.79,4.44-10.69,5.77-.94.32-1.83.9-2.62,1.5-3.02,2.3-3.46,2.26-5.63-.84-.32-.46-.61-.96-.87-1.46-2.48-4.72-4.95-9.44-7.59-14.46Z"/>
      <path class="cls-1" d="m133.19,107.56c-2.64.85-5.03,1.61-7.42,2.38-1.41.45-2.05,1.22-1.79,2.88.45,2.92.73,5.87.83,8.82.03.87-.63,1.91-1.27,2.61-.39.43-1.53.67-1.99.4-.44-.26-.54-1.27-.59-1.97-.26-3.94-.47-7.89-.67-11.83-.11-2.2-.07-4.41-.27-6.61-.43-4.87-.88-9.74-1.48-14.6-.31-2.55,1.63-4.25,3.54-4.19,5.32.19,10.52,1.13,15.13,4.09,3.69,2.37,5.59,6.64,4.17,10.6-.59,1.66-2.04,3.12-3.41,4.34-.85.76-1.01,1.21-.55,2.15,2.26,4.58,4.44,9.19,6.74,13.75.68,1.35.62,2.21-.86,2.83-1.33.56-2.35.88-3.15-.93-2.2-4.92-4.6-9.76-6.97-14.72Zm-8.85-1.77c.38.03.87.2,1.23.06,3.37-1.32,6.88-2.4,10.01-4.16,2.6-1.47,2.82-4.27.99-6.15-3.48-3.57-8.04-4.91-13.08-4.96.29,5.13.57,10.04.86,15.22Z"/>
      <path class="cls-1" d="m56.71,142.22c-4.47-.27-8.77-.52-13.07-.82-.75-.05-1.55-.15-2.2-.48-.74-.37-1.35-1.02-2.01-1.54.75-.8,1.36-1.89,2.28-2.33.8-.38,1.97-.15,2.95,0,4.9.77,9.78.75,14.68.02,1.06-.16,2.29-.67,2.98.79.6,1.27.44,2.28-.3,3.6-1.89,3.36-3.42,6.92-5.1,10.4-1.36,2.81-2.76,5.59-4.07,8.42-.66,1.42-1.12,2.93-1.73,4.37-1.88,4.51-3.79,9.01-5.68,13.52-.11.27-.12.58-.24,1.18,1.85-.09,3.53-.15,5.19-.27,3.27-.23,6.54-.55,9.82-.72.74-.04,1.76.17,2.18.67.48.57.84,1.8.53,2.36-.36.65-1.45,1.2-2.27,1.26-4.75.38-9.52.62-14.29.86-1.7.09-3.4.07-5.1.03-1.96-.04-2.69-1.39-1.87-3.2,3.01-6.61,5.97-13.24,8.98-19.85,2.65-5.83,5.34-11.64,8.01-17.46.15-.33.25-.68.31-.83Z"/>
      <path class="cls-1" d="m24.96,107.4c-2.87,0-5.63-.06-8.38.04-.6.02-1.48.45-1.72.94-.84,1.68-1.52,3.45-2.13,5.22-.4,1.16-.9,2.46-2.22,1.69-.7-.41-1.18-2.06-.97-2.97.5-2.16,1.51-4.19,2.23-6.31,1.76-5.16,3.42-10.34,5.24-15.48.27-.76,1.12-1.7,1.83-1.82.91-.15,2.37.13,2.84.77,1.46,2.01,2.92,4.16,3.75,6.48,2.34,6.56,4.38,13.24,6.51,19.88,1.54,4.79,2.99,9.6,4.56,14.37.78,2.36-.07,3.85-2.96,4.43-1.5-4.47-3.07-8.95-4.5-13.48-1.41-4.47-2.67-8.98-4.08-13.76Zm-4.99-12.54c-1.08,2.75-1.97,5.01-2.94,7.49h6.16c-1.08-2.51-2.04-4.74-3.22-7.49Z"/>
      <path class="cls-1" d="m110.86,149.38c1.33-3.53,2.69-6.9,3.86-10.33.99-2.91,1.06-3.13,4.48-4.48.07,1.14.42,2.22.13,3.09-1.66,4.94-3.41,9.86-5.26,14.74-2.92,7.7-5.95,15.36-8.9,23.05-.85,2.23-1.57,4.51-2.33,6.77-.47,1.39-1.6,1.9-2.87,2.03-1.36.14-2.12-.83-1.64-2.19,1.5-4.2,3.08-8.38,4.69-12.54,1.81-4.68,3.69-9.34,5.54-14.01.34-.86.29-1.42-.69-1.97-4.99-2.81-9.91-5.74-14.88-8.58-.98-.56-1.72-1.07-1.08-2.34.58-1.14,2.32-2,3.26-1.49,4.73,2.51,9.44,5.05,14.16,7.57.43.23.89.41,1.52.69Z"/>
      <path class="cls-1" d="m61.47,97.15c.03.52.04.76.05,1.01.26,3.88.34,4.01,4.16,3.52,1.45-.18,2.72-.25,3.05,1.41.34,1.7-.95,2.6-2.3,3.05-1.22.41-2.58.44-3.98.66-.03.56-.12,1.04-.07,1.52.42,4.1.9,8.19,1.29,12.29.12,1.29.62,1.93,1.95,2,1.25.07,2.5.33,3.75.41,1.5.1,2.42.68,2.4,2.34-.02,1.53-1.06,1.96-2.27,2.15-.54.09-1.11,0-1.66-.07-1.68-.21-3.36-.49-5.05-.68-1.99-.22-2.78-1.01-2.95-3-.3-3.69-.59-7.38-.97-11.06-.59-5.62-1.29-11.23-1.86-16.86-.25-2.47,2.3-4.52,4.74-4.1,1.92.34,3.88.48,5.83.67,1.63.16,2.94,1.19,2.76,2.43-.23,1.61-1.36,2.28-2.92,2.29-1.93,0-3.86,0-5.95,0Z"/>
      <path class="cls-1" d="m45.18,96.13c.68,4.84,1.29,9.44,2,14.02.7,4.54,1.55,9.05,2.24,13.59.11.7-.13,1.66-.57,2.19-.47.56-1.61,1.2-2.05.99-.74-.36-1.51-1.31-1.65-2.12-.53-3.13-.72-6.32-1.22-9.46-.89-5.53-1.92-11.03-2.91-16.55-.14-.79-.39-1.56-.6-2.41-.97,0-1.84.04-2.7,0-1.18-.07-2.73.36-2.94-1.46-.24-2.13.83-3.45,2.79-3.55,4.21-.21,8.43-.38,12.64-.5,2.25-.06,3.77,1.35,3.09,3-.35.85-1.6,1.47-2.58,1.87-.77.31-1.74.11-2.62.17-.87.05-1.74.14-2.91.23Z"/>
      <path class="cls-1" d="m106.15,104.16c.19,3.37.33,6.62.57,9.87.19,2.45.7,2.85,3.18,2.87.06,0,.13,0,.19,0,2.46-.02,4.06,1.04,3.89,2.58-.11,1.03-2.49,2.08-4.24,1.88-1.54-.17-3.09-.34-4.63-.51-1.16-.13-1.79-.69-1.88-1.93-.43-5.49-.88-10.99-1.39-16.47-.26-2.8-.68-5.59-.98-8.38-.26-2.54,1.27-4.34,3.8-4.54,1.44-.11,2.93-.36,4.33-.15.91.14,2.35.91,2.42,1.53.1.82-.12,2.3-1.64,2.54-.99.15-1.97.41-2.95.6-.37.07-1.07.06-1.08.11-.06,1.36-.13,2.73.02,4.07.04.38.74.87,1.22.98.58.13,1.25-.05,1.86-.17,1.11-.22,2.01-.06,2.38,1.17.36,1.18-.03,2.12-1.15,2.6-1.2.51-2.46.87-3.93,1.38Z"/>
      <path class="cls-1" d="m20.9,155.62c2.84.62,5.72,1.08,8.49,1.92,1.38.42,2.63,1.44,3.78,2.39.44.37.79,1.43.58,1.92-2.1,4.79-9.04,8.01-14.41,6.88-3.44-.72-6.33-2.38-8.83-4.8-1.25-1.21-1.25-3.02.08-4.08,2.98-2.37,6.41-3.62,10.24-3.75l.06-.48Zm10.16,4.84c-2.43-.77-4.53-1.44-6.66-2.12v7.57c2.89-.84,4.97-2.34,6.66-5.45Zm-14.58,5.28c-.13-2.26-.24-4.07-.35-6.07-1.4.79-2.89,1.63-4.8,2.71,1.88,1.23,3.4,2.22,5.15,3.36Z"/>
      <path class="cls-1" d="m85.43,162.14c.4,2.93-.62,5.53-2.2,7.82-1.52,2.21-3.84,3.18-6.57,2.95-2.24-.19-3.41-1.73-4.24-3.56-2.49-5.48-1.5-11.51,2.58-15.5,1.27-1.24,2.62-2.51,4.18-3.3.76-.38,2.54-.07,3.01.57,1.24,1.66,2.31,3.59,2.9,5.57.51,1.7.26,3.62.35,5.45Zm-10.5-.72c.5,2.04.7,3.95,1.44,5.63.95,2.17,2.8,2.2,3.87.06,1.65-3.26,2.09-6.73.75-10.25-.27-.7-.94-1.85-1.26-1.8-.94.15-2.15.59-2.6,1.32-.96,1.56-1.5,3.37-2.2,5.04Z"/>
      <path class="cls-1" d="m137.48,150.71c3.39.02,6.18,1.6,8.58,3.72,2.74,2.42,2.6,2.54-.08,4.93-2.55,2.28-5.43,3.3-8.9,3.73-3.9.48-7.41.08-10.93-1.45-2.55-1.11-2.93-2.91-1.07-4.99,3.31-3.69,7.36-5.77,12.39-5.95Zm1.62,9.69c2.23-.5,4.44-1.03,5.95-3.18-1.93-2.15-4.13-3.46-6.93-3.65.33,2.34.64,4.49.98,6.83Zm-8.85-5.67c-1.61,1.36-2.96,2.49-4.63,3.9,2.02.75,3.59,1.34,5.11,1.91-.16-1.93-.3-3.61-.48-5.81Z"/>
      <path class="cls-1" d="m82.12,104.79c.27,6.21.54,11.54.69,16.87.04,1.55.54,2.33,2.15,2.39.93.04,1.93.14,2.77.51.76.33,1.88,1.08,1.88,1.64,0,1.19-.31,2.81-2.03,2.72-2.38-.12-4.75-.48-7.09-.92-.45-.08-.99-.99-1.05-1.57-.34-2.94-.58-5.89-.79-8.85-.38-5.32-.67-10.64-1.1-15.95-.22-2.74-.7-5.45-.97-8.18-.14-1.48.74-2.29,2.12-2.69,1.42-.41,1.68.67,1.84,1.53.42,2.32.71,4.66,1,7,.26,2.12.45,4.24.58,5.5Z"/>
      <path class="cls-1" d="m91.37,109.86c0-2.07,0-4.14,0-6.21,0-.5-.15-1.13.09-1.47.61-.86,1.4-1.59,2.12-2.37.5.72,1.27,1.38,1.43,2.16.29,1.46.22,2.99.29,4.49.14,3.31.3,6.62.4,9.93.02.61.06,1.47-.29,1.78-.69.61-1.66,1.24-2.5,1.22-.42,0-1.12-1.39-1.17-2.19-.15-2.44-.06-4.9-.06-7.35-.11,0-.21,0-.32,0Z"/>
      <path class="cls-1" d="m80.55,181.21c-2.75-.41-4.95-.75-7.16-1.06-.93-.13-1.31-.62-.75-1.4.8-1.13,1.42-2.58,3.25-2.38,1.56.17,3.14.2,4.69.42,1.49.21,1.95,1.56,1.8,2.64-.11.73-1.29,1.3-1.82,1.78Z"/>
      <path class="cls-1" d="m96.71,93.37c-1.68,1.2-2.99,4.35-5.6,1.37-.7-.8-.04-3.32,1.09-3.8,2.44-1.03,3.47.89,4.51,2.43Z"/>
      <path class="cls-1" d="m24.53,145.87c1.54.86,2.21,1.7,1.18,3.14-.21.29-.01.9-.24,1.14-.53.57-1.21,1-1.83,1.49-.21-.64-.69-1.35-.56-1.91.3-1.27.9-2.46,1.45-3.87Z"/>
      <path class="cls-1" d="m153.66,166.68c-.43.58-.61,1.05-.93,1.2-.32.14-.95.11-1.17-.11-.89-.89-1.71-1.85-2.46-2.85-.18-.24-.12-.9.08-1.14.23-.26.95-.49,1.12-.34,1.14.99,2.19,2.09,3.36,3.24Z"/>
      <path class="cls-1" d="m37.88,150.22c-.92,1.31-1.72,2.55-2.66,3.68-.17.2-.98.08-1.33-.15-.24-.16-.38-.85-.23-1.14.57-1.12,1.22-2.2,1.95-3.22.2-.28.88-.45,1.23-.33.37.13.61.65,1.04,1.16Z"/>
      <path class="cls-1" d="m140.88,172.39c-.67-1.19-1.39-2.35-1.98-3.57-.17-.36-.13-1.08.12-1.32.27-.26,1.16-.38,1.31-.19.77.97,1.57,2,1.98,3.15.18.51-.53,1.34-.83,2.02-.2-.03-.4-.06-.59-.09Z"/>
      <path class="cls-1" d="m13.53,147.5c.2-.3.47-1.04.75-1.05.44-.01,1.16.39,1.3.78.42,1.16.69,2.39.85,3.61.04.34-.49,1.05-.76,1.06-.43,0-1.12-.35-1.25-.72-.4-1.1-.58-2.28-.9-3.68Z"/>
      <path class="cls-1" d="m129.95,171.35c.08-.75.03-1.55.27-2.24.17-.46.76-.77,1.16-1.15.29.46.76.9.84,1.4.11.66.07,1.42-.16,2.05-.26.73-.78,1.37-1.19,2.05-.42-.62-.84-1.24-1.26-1.87l.33-.24Z"/>
      <path class="cls-1" d="m124.06,166.46c-.74,1.2-1.46,2.42-2.24,3.59-.11.16-.68.24-.8.12-.28-.28-.65-.79-.55-1.05.43-1.22.96-2.41,1.56-3.55.12-.23.73-.31,1.1-.27.49.05.96.28,1.44.44-.17.24-.34.48-.51.73Z"/>
      <path class="cls-1" d="m9.18,155.44c-.52.21-.99.51-1.48.55-.36.03-.9-.15-1.11-.43-.64-.84-1.27-1.73-1.69-2.7-.2-.46.07-1.13.13-1.71.51.2,1.18.27,1.5.63.81.93,1.47,1.99,2.65,3.66Z"/>
      <path class="cls-1" d="m121.05,47.02c-.81.91-1.48,1.76-2.23,2.51-3.96,3.96-9.36,4.3-14.36,5.59-7.76,2-15.58,1.69-23.4.35-.62-.11-1.27-.03-1.87-.17-.87-.2-2.47-.59-2.45-.77.1-1.17.28-2.54.97-3.4,3.89-4.8,9.54-6.53,15.19-7.87,3.87-.91,7.99-1.54,11.91-1.22,4.02.33,7.96,1.91,11.9,3.06,1.34.39,2.58,1.13,4.35,1.92Zm-27.48,7.54c.46,0,1.28.12,2.07-.02,5.12-.91,10.27-1.71,15.32-2.9,2.15-.51,4.1-1.89,6.45-3.03-8.62-5.17-17.09-5.32-25.58-2.69.6,2.95,1.16,5.73,1.75,8.64Zm-10.65-.88c-.15-1.44-.27-2.55-.43-4.15-1.45,1.26-2.64,2.3-4.27,3.73,1.88.17,3.2.29,4.71.42Z"/>
      <path class="cls-1" d="m141.77,15.59c.31,4.93.63,9.85.92,14.78.03.56-.02,1.13-.12,1.69-.39,2.3-.81,2.58-2.79,1.41-4.43-2.61-8.84-5.28-13.18-8.04-1.99-1.27-1.7-2.19.29-3.37,3.71-2.21,7.28-4.66,10.9-7.02.58-.38,1.07-.9,1.69-1.19.53-.25,1.38-.57,1.7-.33.58.44.88,1.26,1.29,1.92-.23.05-.46.1-.7.16Z"/>
      <path class="cls-1" d="m96.29,62.1c-5.81-.49-10.81-.83-15.79-1.37-1.45-.16-2.88-.76-4.25-1.33-.41-.17-.58-.91-.85-1.39.54-.28,1.19-.9,1.61-.78,5.93,1.72,12.05,2.12,18.14,2.02,5.41-.09,10.83-.72,16.2-1.43,3.61-.47,6.33-2.92,9.1-5.13.47-.37,1.17-.45,1.77-.66-.1.71.05,1.79-.35,2.08-2.64,1.87-5.18,4.39-8.16,5.15-5.91,1.51-12.08,2.02-17.41,2.83Z"/>
      <path class="cls-1" d="m105.43,21.57c-1.24.14-2.48.33-3.72.4-1.62.08-2.22-.77-1.58-2.25,1.3-2.98,2.63-5.96,4.03-8.9.22-.47.93-1.07,1.33-1.02.71.09,1.68.48,1.96,1.04.93,1.81,1.57,3.77,2.39,5.64.29.67.98,1.19,1.17,1.87.38,1.35-.56,2.57-2.04,2.85-1.17.22-2.35.38-3.52.57,0-.07-.02-.14-.03-.21Z"/>
      <path class="cls-1" d="m45.95,72.63c-2.66.45-5.33.91-8.14,1.39.44-2.26,5.33-3.17,8.14-1.39Z"/>
      <path class="cls-1" d="m24.76,72.01c-2.26,2.16-4.74,1.43-6.95,1.8-.19.03-.58-.28-.63-.49-.05-.24.1-.69.3-.8.47-.25,1.02-.47,1.55-.49,1.78-.06,3.56-.02,5.74-.02Z"/>
      <path class="cls-1" d="m26.31,61.67c-1.91.78-3.81,1.56-5.91,2.42.11-2.28,2.97-3.51,5.91-2.42Z"/>
      <path class="cls-1" d="m36.18,60.86c-1.51.82-2.99,1.69-4.54,2.42-.37.17-.95-.12-1.44-.2.3-.5.48-1.23.91-1.45.88-.44,1.89-.62,2.86-.86.65-.16,1.31-.23,1.97-.34.08.15.16.29.24.44Z"/>
      <path class="cls-1" d="m46.49,55.87c-1.3.62-2.57,1.32-3.92,1.81-.41.15-1.04-.29-1.56-.47.33-.51.59-1.37,1.02-1.47,1.4-.31,2.86-.35,4.3-.49.06.2.11.41.17.61Z"/>
      <path class="cls-1" d="m49.26,49.69c-1.47.52-2.92,1.08-4.41,1.52-.4.12-.9-.15-1.36-.24.31-.45.56-1.21.94-1.29,1.53-.32,3.11-.43,4.66-.61.05.21.11.42.16.63Z"/>
      <path class="cls-1" d="m43.93,64.31c-1.42.49-2.83,1.01-4.27,1.42-.17.05-.51-.48-.77-.74.93-.56,1.81-1.27,2.81-1.64.61-.23,1.42.06,2.14.12.03.28.06.56.08.83Z"/>
      <path class="cls-1" d="m37.94,69.02c-1.77.47-3.12.85-4.49,1.15-.25.05-.78-.24-.84-.46-.06-.25.18-.69.42-.89,1.4-1.15,2.86-1.27,4.9.21Z"/>
      <path class="cls-1" d="m83.13,42.13c-.52.39-1.03.87-1.09.82-.9-.77-1.76-1.59-2.56-2.47-.03-.03.65-.71.99-1.09.83.86,1.67,1.72,2.66,2.74Z"/>
      <path class="cls-1" d="m102.38,39.87c-1.02-1.87-.71-3.69,1.43-5.02-.26,1.68-.52,3.37-.78,5.05-.21-.01-.43-.02-.64-.04Z"/>
      <path class="cls-1" d="m14.42,70.33c.5-.48.93-1.21,1.53-1.39.98-.3,2.07-.25,3.11-.35.04.26.08.52.12.78-1.38.59-2.76,1.19-4.14,1.78-.21-.27-.42-.54-.62-.81Z"/>
      <path class="cls-1" d="m51.16,67c-2.09,2.21-4.51,2.55-5.6.64,1.85-.21,3.5-.4,5.6-.64Z"/>
      <path class="cls-1" d="m27.19,67.88c-1.33.41-2.66.81-4.28,1.31.66-2.59,2.1-3.11,4.15-2.04.05.24.09.48.14.73Z"/>
      <path class="cls-1" d="m12.87,67.24c-.08-2.38,2.17-3.85,4.4-2.8-1.53.98-2.9,1.85-4.4,2.8Z"/>
      <path class="cls-1" d="m30.95,58.03c-1.25-1.81-.57-2.2,4.46-2.42-1.49.81-2.98,1.62-4.46,2.42Z"/>
      <path class="cls-1" d="m54.38,55.64c-.75.39-1.47.84-2.25,1.16-.74.3-1.53.45-2.72.79.22-.78.25-1.59.49-1.65,1.44-.38,2.91-.59,4.38-.86.04.19.07.37.11.56Z"/>
      <path class="cls-1" d="m94.54,34.73c.15,1.08.38,2.15.42,3.24,0,.29-.56.61-.86.91-.32-.91-.77-1.8-.9-2.73-.07-.51.38-1.1.59-1.66.25.08.5.16.75.24Z"/>
      <path class="cls-1" d="m122.27,39.51c-.31,1.03-.52,1.99-.91,2.87-.16.36-.72.55-1.1.82-.24-.43-.72-.89-.69-1.3.1-1.41.9-2.05,2.69-2.38Z"/>
      <path class="cls-1" d="m114.19,36.39c-.19.88-.29,1.78-.6,2.6-.13.36-.67.57-1.02.84-.27-.36-.73-.7-.78-1.09-.16-1.19,1.09-2.35,2.4-2.36Z"/>
      <path class="cls-1" d="m78.16,45.11c-1.75,1-2.87,1.04-3.62-.18-.21-.35.19-1.07.31-1.63.99.54,1.99,1.09,3.31,1.81Z"/>
      <path class="cls-1" d="m124.45,46.74c-.54-1.92.44-2.93,3.39-3.57-1.26,1.32-2.23,2.35-3.39,3.57Z"/>
      <path class="cls-1" d="m87.98,36.58v3.68c-1.98-1.87-1.94-2.76,0-3.68Z"/>
    </g>
  </g>
</svg>