<?xml version="1.0" encoding="UTF-8"?>
<svg id="Calque_2" data-name="Calque 2" xmlns="http://www.w3.org/2000/svg" viewBox="0 0 383.41 383.41">
  <defs>
    <style>
      .cls-1 {
        stroke-width: 0px;
      }
    </style>
  </defs>
  <g id="Calque_1-2" data-name="Calque 1">
    <g>
      <path class="cls-1" d="m383.41,179.76v23.96c-.58,4.68-1.09,9.37-1.75,14.04-5.47,38.29-20.85,72.09-46.57,100.95-29.52,33.13-66.21,53.81-109.95,61.72-7.08,1.28-14.26,2-21.39,2.98h-23.96c-1.21-.23-2.4-.5-3.62-.68-8.01-1.17-16.12-1.83-24.01-3.54-45.88-9.94-83.56-33.42-112.02-70.68C4.52,261.89-7.48,209.26,4.48,151.84,14.95,101.56,42.28,61.88,84.61,33.06,126.56,4.52,173.13-5.32,223.17,2.68c36.2,5.78,68.12,21.22,95.48,45.64,33.22,29.65,53.99,66.44,61.81,110.38,1.24,6.97,1.98,14.03,2.94,21.06Zm-191.84,99.08c32.55,0,65.11.02,97.66,0,16.18-.01,26.04-9.94,26.04-26.18.01-40.54,0-81.09,0-121.63,0-16.52-9.77-26.38-26.2-26.38-64.86-.01-129.72-.01-194.57,0-16.43,0-26.22,9.87-26.23,26.36,0,40.29.31,80.59-.17,120.88-.18,15.21,10.42,27.37,26.93,27.11,32.17-.51,64.36-.15,96.54-.15Z"/>
      <path class="cls-1" d="m88.42,134.73c6.56,5.19,12.68,10.02,18.79,14.87,25.59,20.32,51.18,40.64,76.76,60.96,5.87,4.67,9.71,4.68,15.68-.06,30.28-24.03,60.55-48.08,90.83-72.12,1.35-1.07,2.71-2.13,4.64-3.65.13,1.73.29,2.87.29,4.01.01,37.8.02,75.61,0,113.41,0,5.93-1.04,6.93-7,6.93-64.49,0-128.98,0-193.47,0-5.63,0-6.83-1.07-6.83-6.34-.02-38.18-.01-76.35,0-114.53,0-.94.16-1.89.3-3.49Z"/>
      <path class="cls-1" d="m107.83,124.54h167.79c-1.18,1.1-1.9,1.86-2.71,2.51-26.17,20.79-52.36,41.56-78.5,62.4-1.84,1.47-3.04,1.79-5.05.18-26.51-21.16-53.1-42.23-79.66-63.33-.47-.37-.88-.82-1.86-1.75Z"/>
    </g>
  </g>
</svg>